<?xml version="1.0" encoding="utf-8"?>
<!-- Generator: Adobe Illustrator 18.1.1, SVG Export Plug-In . SVG Version: 6.00 Build 0)  -->
<svg version="1.1" id="Layer_1" xmlns="http://www.w3.org/2000/svg" xmlns:xlink="http://www.w3.org/1999/xlink" x="0px" y="0px"
	 viewBox="0 0 284.1 92.3" enable-background="new 0 0 284.1 92.3" xml:space="preserve">
<g id="XMLID_80_">
	<g id="XMLID_31_">
		<path id="XMLID_32_" fill="#213266" d="M2.2,22.8c0-12.4,9.4-20.7,21.4-20.7c10,0,15.1,5.5,17.8,10.7l-8.9,4.2
			c-1.3-3.2-4.7-5.8-8.9-5.8c-6.2,0-10.9,5-10.9,11.6c0,6.5,4.6,11.6,10.9,11.6c4.1,0,7.6-2.6,8.9-5.8l8.9,4.2
			c-2.6,5.2-7.8,10.7-17.8,10.7C11.5,43.5,2.2,35.1,2.2,22.8z"/>
		<path id="XMLID_34_" fill="#213266" d="M65.1,2.1c12.2,0,21.4,8.5,21.4,20.7c0,12.2-9.1,20.7-21.4,20.7
			c-12.2,0-21.4-8.5-21.4-20.7C43.7,10.6,52.9,2.1,65.1,2.1z M65.1,11.2c-6.7,0-10.9,5-10.9,11.6c0,6.5,4.3,11.6,10.9,11.6
			c6.6,0,10.9-5.1,10.9-11.6C76,16.3,71.7,11.2,65.1,11.2z"/>
		<path id="XMLID_37_" fill="#213266" d="M102,18.6v24.2H91.7v-40h10.6l16.2,23v-23h10.4v40h-10L102,18.6z"/>
		<path id="XMLID_39_" fill="#213266" d="M134,22.8c0-12.4,9.4-20.7,21.4-20.7c10,0,15.1,5.5,17.8,10.7l-8.9,4.2
			c-1.3-3.2-4.7-5.8-8.9-5.8c-6.2,0-10.9,5-10.9,11.6c0,6.5,4.6,11.6,10.9,11.6c4.1,0,7.6-2.6,8.9-5.8l8.9,4.2
			c-2.6,5.2-7.8,10.7-17.8,10.7C143.4,43.5,134,35.1,134,22.8z"/>
		<path id="XMLID_41_" fill="#213266" d="M177.6,2.8h29.3v8.7h-19v6.7h18.6v8.8h-18.6v7.2h19v8.7h-29.3V2.8z"/>
		<path id="XMLID_43_" fill="#213266" d="M212.9,2.8h20c9,0,13.9,6.1,13.9,13.3c0,7.2-4.9,13.1-13.9,13.1h-9.7v13.6h-10.3V2.8z
			 M231.6,11.5h-8.3v9h8.3c2.8,0,4.8-1.7,4.8-4.4C236.4,13.3,234.4,11.5,231.6,11.5z"/>
		<path id="XMLID_46_" fill="#213266" d="M260.5,11.8h-11.2v-9h32.7v9h-11.2v31h-10.3V11.8z"/>
	</g>
	<g id="XMLID_14_">
		<path id="XMLID_15_" fill="#213266" d="M59.5,76.8h-5.2v13.3H44.1V50.8h19.7c8.7,0,13.7,5.8,13.7,13.1c0,6.8-4.2,10.5-7.8,11.8
			l8,14.5H66.1L59.5,76.8z M62.3,59.3h-8v8.9h8c2.7,0,4.9-1.7,4.9-4.4S65,59.3,62.3,59.3z"/>
		<path id="XMLID_18_" fill="#213266" d="M83.1,50.8H112v8.6H93.3v6.5h18.3v8.6H93.3v7.1H112v8.6H83.1V50.8z"/>
		<path id="XMLID_20_" fill="#213266" d="M143.1,84.2h-16.3l-2,6h-11l14.8-39.4h12.7l14.9,39.4h-11L143.1,84.2z M129.4,75.6h11
			l-5.5-16L129.4,75.6z"/>
		<path id="XMLID_23_" fill="#213266" d="M159,50.8h10.1v30.5H185v8.9h-26V50.8z"/>
		<path id="XMLID_25_" fill="#213266" d="M190.2,50.8h10.1v39.4h-10.1V50.8z"/>
		<path id="XMLID_27_" fill="#213266" d="M216.2,59.6h-11v-8.9h32.2v8.9h-11v30.5h-10.1V59.6z"/>
		<path id="XMLID_29_" fill="#213266" d="M252.9,74.3L238,50.8h11.4l8.6,14.5l8.4-14.5h11.5l-14.9,23.5v15.9h-10.1V74.3z"/>
	</g>
	<g id="XMLID_4_">
		<path id="XMLID_9_" fill="#213266" d="M6.4,58.2H2.1v-2.8h11.7v2.8H9.6v11.9H6.4V58.2z"/>
		<path id="XMLID_11_" fill="#213266" d="M22.3,55.2c4.4,0,7.7,3.2,7.7,7.6c0,4.4-3.2,7.6-7.7,7.6c-4.4,0-7.7-3.2-7.7-7.6
			C14.6,58.4,17.9,55.2,22.3,55.2z M22.3,58c-2.7,0-4.4,2.1-4.4,4.8c0,2.7,1.7,4.8,4.4,4.8s4.5-2.1,4.5-4.8C26.7,60.1,25,58,22.3,58
			z"/>
	</g>
</g>
</svg>
