<?xml version="1.0" encoding="utf-8"?>
<!-- Generator: Adobe Illustrator 18.1.1, SVG Export Plug-In . SVG Version: 6.00 Build 0)  -->
<svg version="1.1" id="Layer_1" xmlns="http://www.w3.org/2000/svg" xmlns:xlink="http://www.w3.org/1999/xlink" x="0px" y="0px"
	 viewBox="0 0 212 77" enable-background="new 0 0 212 77" xml:space="preserve">
<g id="XMLID_94_">
	<path id="XMLID_196_" fill="#002E6D" d="M37.3,13.8l-34.4,13l13,34.4l34.4-13L37.3,13.8L37.3,13.8z M17.6,42.9h-3.6V30.2h3.6V42.9
		L17.6,42.9z M25.2,43.3c-2.8,0-5.3-1.2-5.4-4.1h3.4c0.1,1,0.9,1.5,2,1.5c1,0,1.8-0.4,1.8-1.4c0-1-1.8-1.4-2.5-1.6
		c-2.3-0.6-4.5-1.1-4.5-4.1c0-2.7,3.1-3.8,5.2-3.8c2.6,0,4.8,1,4.9,3.8h-3.3c0-0.9-0.8-1.2-1.7-1.2c-1,0-1.5,0.3-1.5,1.1
		c0,2,7,0.9,7,5.6C30.7,41.9,27.5,43.3,25.2,43.3 M38.9,40.7c0.4,0,0.8-0.1,1.2-0.1v2.2c-0.4,0.2-2.4,0.4-2.9,0.4
		c-2.8,0-3.4-1.5-3.4-4.3v-6.2h-2.5v-2.5h2.5v-2.5l3.6-1.4v3.9h2.7v2.5h-2.7v5.9C37.4,40.3,37.6,40.7,38.9,40.7"/>
	<path id="XMLID_195_" fill="#FF5000" d="M83.6,14c0.9,2.5-0.4,5.3-2.9,6.2c-2.5,0.9-5.3-0.4-6.2-2.9c-0.9-2.5,0.3-5.3,2.9-6.2
		C79.9,10.3,82.7,11.5,83.6,14"/>
	<g id="XMLID_191_">
		<defs>
			<rect id="XMLID_192_" x="2.9" y="1.1" width="206.2" height="74.8"/>
		</defs>
		<clipPath id="XMLID_2_">
			<use xlink:href="#XMLID_192_"  overflow="visible"/>
		</clipPath>
		<path id="XMLID_194_" clip-path="url(#XMLID_2_)" fill="#FF5000" d="M69.1,5.7c0.8,2.2-0.3,4.5-2.4,5.3c-2.2,0.8-4.5-0.3-5.3-2.5
			c-0.8-2.1,0.3-4.5,2.4-5.3C65.9,2.4,68.3,3.5,69.1,5.7"/>
		<path id="XMLID_193_" clip-path="url(#XMLID_2_)" fill="#FF5000" d="M55.1,3.5c0.7,1.9-0.3,3.9-2.1,4.6c-1.9,0.7-3.9-0.3-4.6-2.1
			c-0.7-1.9,0.3-3.9,2.1-4.6C52.3,0.7,54.4,1.6,55.1,3.5"/>
	</g>
	<path id="XMLID_190_" fill="#FF5000" d="M42,6.4c0.6,1.5-0.2,3.2-1.7,3.7c-1.5,0.6-3.2-0.2-3.7-1.7C36,7,36.8,5.3,38.3,4.7
		C39.8,4.2,41.5,4.9,42,6.4"/>
	<path id="XMLID_189_" fill="#FF5000" d="M17.9,25.2c0.4,1.1-0.2,2.4-1.3,2.8c-1.1,0.4-2.4-0.2-2.8-1.3c-0.4-1.1,0.2-2.4,1.3-2.8
		C16.2,23.5,17.5,24.1,17.9,25.2"/>
	<path id="XMLID_188_" fill="#FF5000" d="M24.1,18.1c0.4,1.2-0.2,2.5-1.3,2.9c-1.2,0.4-2.5-0.2-2.9-1.3c-0.4-1.2,0.2-2.5,1.3-2.9
		C22.3,16.3,23.6,16.9,24.1,18.1"/>
	<path id="XMLID_187_" fill="#FF5000" d="M32,12c0.5,1.4-0.2,2.9-1.5,3.4c-1.4,0.5-2.9-0.2-3.4-1.5c-0.5-1.4,0.2-2.9,1.5-3.4
		C30,9.9,31.5,10.6,32,12"/>
	<polygon id="XMLID_186_" fill="#002E6D" points="58.3,22.6 58.3,34.8 55.6,34.8 55.6,22.6 58.3,22.6 	"/>
	<path id="XMLID_185_" fill="#002E6D" d="M60.8,28.8c0-1.1,0-2.1-0.1-2.8h2.4l0.1,1.2h0.1c0.4-0.6,1.3-1.4,2.7-1.4
		c1.8,0,3.2,1.2,3.2,3.8v5.3h-2.8v-4.9c0-1.1-0.4-1.9-1.4-1.9c-0.8,0-1.2,0.5-1.4,1c-0.1,0.2-0.1,0.4-0.1,0.7v5.1h-2.8V28.8
		L60.8,28.8z"/>
	<path id="XMLID_184_" fill="#002E6D" d="M74.6,23.4v2.5h2v2h-2v3.2c0,1.1,0.3,1.6,1.1,1.6c0.3,0,0.6,0,0.8-0.1l0,2.1
		c-0.4,0.1-1,0.2-1.8,0.2c-0.9,0-1.6-0.3-2.1-0.8c-0.5-0.5-0.8-1.4-0.8-2.6V28h-1.2v-2h1.2V24L74.6,23.4L74.6,23.4z"/>
	<path id="XMLID_181_" fill="#002E6D" d="M83.5,29.4c0-0.7-0.3-1.8-1.6-1.8c-1.2,0-1.6,1.1-1.7,1.8H83.5L83.5,29.4z M80.3,31.3
		c0.1,1.1,1.2,1.7,2.5,1.7c0.9,0,1.7-0.1,2.5-0.4l0.4,1.9c-0.9,0.4-2,0.5-3.2,0.5c-3,0-4.7-1.7-4.7-4.5c0-2.3,1.4-4.7,4.5-4.7
		c2.9,0,4,2.2,4,4.4c0,0.5-0.1,0.9-0.1,1.1H80.3L80.3,31.3z"/>
	<path id="XMLID_178_" fill="#002E6D" d="M93.4,29.5c0-0.2,0-0.4-0.1-0.5c-0.2-0.7-0.7-1.2-1.5-1.2c-1,0-1.8,0.9-1.8,2.5
		c0,1.3,0.7,2.4,1.8,2.4c0.7,0,1.3-0.5,1.5-1.1c0.1-0.2,0.1-0.5,0.1-0.7V29.5L93.4,29.5z M96.2,25.9c0,0.6-0.1,1.3-0.1,2.6v5
		c0,1.7-0.3,3.1-1.3,4c-1,0.8-2.3,1.1-3.6,1.1c-1.2,0-2.4-0.2-3.2-0.7l0.5-2.1c0.6,0.3,1.5,0.7,2.6,0.7c1.3,0,2.3-0.7,2.3-2.3v-0.6
		h0c-0.5,0.7-1.4,1.2-2.4,1.2c-2.2,0-3.8-1.8-3.8-4.3c0-2.9,1.9-4.7,4-4.7c1.2,0,2,0.5,2.4,1.3h0l0.1-1.1H96.2L96.2,25.9z"/>
	<path id="XMLID_177_" fill="#002E6D" d="M98.2,28.9c0-1.3,0-2.2-0.1-2.9h2.4l0.1,1.6h0.1c0.5-1.3,1.5-1.8,2.4-1.8
		c0.3,0,0.4,0,0.6,0v2.6c-0.2,0-0.4-0.1-0.7-0.1c-1,0-1.7,0.5-1.9,1.4c0,0.2-0.1,0.4-0.1,0.6v4.5h-2.8V28.9L98.2,28.9z"/>
	<path id="XMLID_174_" fill="#002E6D" d="M109.3,30.6c-1.5,0-2.6,0.3-2.6,1.4c0,0.7,0.5,1.1,1.1,1.1c0.7,0,1.3-0.5,1.4-1
		c0-0.1,0.1-0.3,0.1-0.5V30.6L109.3,30.6z M109.6,34.8l-0.2-0.9h-0.1c-0.6,0.7-1.5,1.1-2.5,1.1c-1.8,0-2.9-1.3-2.9-2.7
		c0-2.3,2.1-3.4,5.2-3.4v-0.1c0-0.5-0.3-1.1-1.6-1.1c-0.9,0-1.9,0.3-2.5,0.7l-0.5-1.8c0.6-0.3,1.8-0.8,3.5-0.8c3,0,3.9,1.7,3.9,3.8
		v3.1c0,0.9,0,1.7,0.1,2.2H109.6L109.6,34.8z"/>
	<path id="XMLID_173_" fill="#002E6D" d="M116.8,23.4v2.5h2v2h-2v3.2c0,1.1,0.3,1.6,1.1,1.6c0.3,0,0.6,0,0.8-0.1l0,2.1
		c-0.4,0.1-1,0.2-1.8,0.2c-0.9,0-1.6-0.3-2.1-0.8c-0.5-0.5-0.8-1.4-0.8-2.6V28H113v-2h1.2V24L116.8,23.4L116.8,23.4z"/>
	<path id="XMLID_170_" fill="#002E6D" d="M125.6,29.4c0-0.7-0.3-1.8-1.6-1.8c-1.2,0-1.6,1.1-1.7,1.8H125.6L125.6,29.4z M122.3,31.3
		c0.1,1.1,1.2,1.7,2.5,1.7c0.9,0,1.7-0.1,2.5-0.4l0.4,1.9c-0.9,0.4-2,0.5-3.2,0.5c-3,0-4.7-1.7-4.7-4.5c0-2.3,1.4-4.7,4.5-4.7
		c2.9,0,4,2.2,4,4.4c0,0.5-0.1,0.9-0.1,1.1H122.3L122.3,31.3z"/>
	<path id="XMLID_167_" fill="#002E6D" d="M135.6,29.7c0-0.1,0-0.3,0-0.5c-0.2-0.7-0.8-1.4-1.6-1.4c-1.3,0-1.9,1.1-1.9,2.5
		c0,1.5,0.7,2.5,1.9,2.5c0.8,0,1.4-0.5,1.6-1.3c0.1-0.2,0.1-0.4,0.1-0.6V29.7L135.6,29.7z M138.4,21.9v10.3c0,1,0,2.1,0.1,2.7H136
		l-0.1-1.3h0c-0.6,1-1.6,1.5-2.8,1.5c-2.1,0-3.8-1.8-3.8-4.6c0-3,1.9-4.7,4-4.7c1.1,0,1.9,0.4,2.3,1h0v-4.8H138.4L138.4,21.9z"/>
	<path id="XMLID_166_" fill="#002E6D" d="M144.5,32c0.7,0.4,1.9,0.8,3.1,0.8c1.3,0,1.9-0.5,1.9-1.3c0-0.8-0.6-1.2-2.1-1.7
		c-2-0.7-3.4-1.8-3.4-3.6c0-2.1,1.7-3.7,4.6-3.7c1.4,0,2.4,0.3,3.1,0.6l-0.6,2.2c-0.5-0.2-1.4-0.6-2.6-0.6c-1.2,0-1.8,0.5-1.8,1.2
		c0,0.8,0.7,1.1,2.3,1.7c2.2,0.8,3.2,1.9,3.2,3.7c0,2.1-1.6,3.8-4.9,3.8c-1.4,0-2.8-0.4-3.5-0.7L144.5,32L144.5,32z"/>
	<path id="XMLID_163_" fill="#002E6D" d="M159.7,29.4c0-0.7-0.3-1.8-1.6-1.8c-1.2,0-1.6,1.1-1.7,1.8H159.7L159.7,29.4z M156.5,31.3
		c0.1,1.1,1.2,1.7,2.5,1.7c0.9,0,1.7-0.1,2.5-0.4l0.4,1.9c-0.9,0.4-2,0.5-3.2,0.5c-3,0-4.7-1.7-4.7-4.5c0-2.3,1.4-4.7,4.5-4.7
		c2.9,0,4,2.2,4,4.4c0,0.5-0.1,0.9-0.1,1.1H156.5L156.5,31.3z"/>
	<path id="XMLID_162_" fill="#002E6D" d="M170.2,34.6c-0.5,0.2-1.4,0.4-2.5,0.4c-2.9,0-4.7-1.7-4.7-4.5c0-2.6,1.8-4.7,5.1-4.7
		c0.7,0,1.5,0.1,2.1,0.3l-0.4,2.1c-0.3-0.1-0.8-0.3-1.5-0.3c-1.5,0-2.4,1-2.4,2.5c0,1.6,1.1,2.5,2.4,2.5c0.7,0,1.2-0.1,1.6-0.3
		L170.2,34.6L170.2,34.6z"/>
	<path id="XMLID_161_" fill="#002E6D" d="M180,32c0,1.2,0,2.1,0.1,2.9h-2.4l-0.1-1.3h-0.1c-0.3,0.5-1.2,1.5-2.8,1.5
		c-1.8,0-3.1-1.1-3.1-3.9v-5.2h2.8v4.8c0,1.3,0.4,2.1,1.4,2.1c0.8,0,1.2-0.5,1.4-1c0.1-0.2,0.1-0.4,0.1-0.6v-5.3h2.8V32L180,32z"/>
	<path id="XMLID_160_" fill="#002E6D" d="M182.2,28.9c0-1.3,0-2.2-0.1-2.9h2.4l0.1,1.6h0.1c0.5-1.3,1.5-1.8,2.4-1.8
		c0.3,0,0.4,0,0.6,0v2.6c-0.2,0-0.4-0.1-0.7-0.1c-1,0-1.7,0.5-1.9,1.4c0,0.2-0.1,0.4-0.1,0.6v4.5h-2.8V28.9L182.2,28.9z"/>
	<path id="XMLID_157_" fill="#002E6D" d="M189.1,34.8v-8.9h2.8v8.9H189.1L189.1,34.8z M192,23.4c0,0.8-0.6,1.4-1.5,1.4
		c-0.9,0-1.5-0.6-1.4-1.4c0-0.8,0.6-1.4,1.5-1.4C191.4,22,191.9,22.6,192,23.4L192,23.4z"/>
	<path id="XMLID_156_" fill="#002E6D" d="M197.2,23.4v2.5h2v2h-2v3.2c0,1.1,0.3,1.6,1.1,1.6c0.3,0,0.6,0,0.8-0.1l0,2.1
		c-0.4,0.1-1,0.2-1.8,0.2c-0.9,0-1.6-0.3-2.1-0.8c-0.5-0.5-0.8-1.4-0.8-2.6V28h-1.2v-2h1.2V24L197.2,23.4L197.2,23.4z"/>
	<path id="XMLID_155_" fill="#002E6D" d="M202.8,25.9l1.3,4.4c0.1,0.5,0.3,1.2,0.4,1.7h0.1c0.1-0.5,0.3-1.1,0.4-1.7l1.1-4.4h3
		l-2.1,5.9c-1.3,3.5-2.1,4.9-3.1,5.8c-1,0.8-2,1.1-2.7,1.2l-0.6-2.3c0.3-0.1,0.8-0.2,1.2-0.5c0.4-0.2,0.9-0.7,1.1-1.1
		c0.1-0.1,0.1-0.3,0.1-0.4c0-0.1,0-0.2-0.1-0.5l-3.3-8.1H202.8L202.8,25.9z"/>
	<polygon id="XMLID_154_" fill="#002E6D" points="57.9,41.6 54.6,41.6 54.6,39.2 64,39.2 64,41.6 60.7,41.6 60.7,51.5 57.9,51.5 
		57.9,41.6 	"/>
	<path id="XMLID_151_" fill="#002E6D" d="M69,46c0-0.7-0.3-1.8-1.6-1.8c-1.2,0-1.6,1.1-1.7,1.8H69L69,46z M65.8,47.9
		c0.1,1.1,1.2,1.7,2.5,1.7c0.9,0,1.7-0.1,2.5-0.4l0.4,1.9c-0.9,0.4-2,0.5-3.2,0.5c-3,0-4.7-1.7-4.7-4.5c0-2.3,1.4-4.7,4.5-4.7
		c2.9,0,4,2.2,4,4.4c0,0.5-0.1,0.9-0.1,1.1H65.8L65.8,47.9z"/>
	<path id="XMLID_150_" fill="#002E6D" d="M79.9,51.3c-0.5,0.2-1.4,0.4-2.5,0.4c-2.9,0-4.7-1.7-4.7-4.5c0-2.6,1.8-4.7,5.1-4.7
		c0.7,0,1.5,0.1,2.1,0.3l-0.4,2.1c-0.3-0.1-0.8-0.3-1.5-0.3c-1.5,0-2.4,1-2.4,2.5c0,1.6,1.1,2.5,2.4,2.5c0.7,0,1.2-0.1,1.6-0.3
		L79.9,51.3L79.9,51.3z"/>
	<path id="XMLID_149_" fill="#002E6D" d="M81.6,38.6h2.8v5.1h0c0.3-0.4,0.7-0.7,1.1-0.9c0.4-0.2,0.9-0.3,1.4-0.3
		c1.8,0,3.1,1.2,3.1,3.9v5.2h-2.8v-4.9c0-1.2-0.4-2-1.4-2c-0.7,0-1.2,0.5-1.4,1c-0.1,0.2-0.1,0.4-0.1,0.6v5.3h-2.8V38.6L81.6,38.6z"
		/>
	<path id="XMLID_148_" fill="#002E6D" d="M92.1,45.4c0-1.1,0-2.1-0.1-2.8h2.4l0.1,1.2h0.1c0.4-0.6,1.3-1.4,2.7-1.4
		c1.8,0,3.2,1.2,3.2,3.8v5.3h-2.8v-4.9c0-1.1-0.4-1.9-1.4-1.9c-0.8,0-1.2,0.5-1.4,1c-0.1,0.2-0.1,0.4-0.1,0.7v5.1h-2.8V45.4
		L92.1,45.4z"/>
	<path id="XMLID_145_" fill="#002E6D" d="M104.9,47c0,1.5,0.6,2.7,1.8,2.7c1.1,0,1.8-1.1,1.8-2.7c0-1.3-0.5-2.7-1.8-2.7
		C105.4,44.4,104.9,45.7,104.9,47L104.9,47z M111.4,47c0,3.3-2.3,4.7-4.7,4.7c-2.6,0-4.6-1.7-4.6-4.6c0-2.9,1.9-4.7,4.7-4.7
		C109.6,42.4,111.4,44.3,111.4,47L111.4,47z"/>
	<polygon id="XMLID_144_" fill="#002E6D" points="113.1,38.6 115.9,38.6 115.9,51.5 113.1,51.5 113.1,38.6 	"/>
	<path id="XMLID_141_" fill="#002E6D" d="M120.3,47c0,1.5,0.6,2.7,1.8,2.7c1.1,0,1.8-1.1,1.8-2.7c0-1.3-0.5-2.7-1.8-2.7
		C120.7,44.4,120.3,45.7,120.3,47L120.3,47z M126.7,47c0,3.3-2.3,4.7-4.7,4.7c-2.6,0-4.6-1.7-4.6-4.6c0-2.9,1.9-4.7,4.7-4.7
		C124.9,42.4,126.7,44.3,126.7,47L126.7,47z"/>
	<path id="XMLID_138_" fill="#002E6D" d="M134.1,46.2c0-0.2,0-0.4-0.1-0.5c-0.2-0.7-0.7-1.2-1.5-1.2c-1,0-1.8,0.9-1.8,2.5
		c0,1.3,0.7,2.4,1.8,2.4c0.7,0,1.3-0.5,1.5-1.1c0.1-0.2,0.1-0.5,0.1-0.7V46.2L134.1,46.2z M136.9,42.6c0,0.6-0.1,1.3-0.1,2.6v5
		c0,1.7-0.3,3.1-1.3,4c-1,0.8-2.3,1.1-3.6,1.1c-1.2,0-2.4-0.2-3.2-0.7l0.5-2.1c0.6,0.3,1.5,0.7,2.6,0.7c1.3,0,2.3-0.7,2.3-2.3v-0.6
		h0c-0.5,0.7-1.4,1.2-2.4,1.2c-2.2,0-3.8-1.8-3.8-4.3c0-2.9,1.9-4.7,4-4.7c1.2,0,2,0.5,2.4,1.3h0l0.1-1.1H136.9L136.9,42.6z"/>
	<path id="XMLID_135_" fill="#002E6D" d="M138.9,51.5v-8.9h2.8v8.9H138.9L138.9,51.5z M141.7,40.1c0,0.8-0.6,1.4-1.5,1.4
		c-0.9,0-1.5-0.6-1.4-1.4c0-0.8,0.6-1.4,1.5-1.4C141.1,38.7,141.7,39.3,141.7,40.1L141.7,40.1z"/>
	<path id="XMLID_132_" fill="#002E6D" d="M149.2,46c0-0.7-0.3-1.8-1.6-1.8c-1.2,0-1.6,1.1-1.7,1.8H149.2L149.2,46z M146,47.9
		c0.1,1.1,1.2,1.7,2.5,1.7c0.9,0,1.7-0.1,2.5-0.4l0.4,1.9c-0.9,0.4-2,0.5-3.2,0.5c-3,0-4.7-1.7-4.7-4.5c0-2.3,1.4-4.7,4.5-4.7
		c2.9,0,4,2.2,4,4.4c0,0.5-0.1,0.9-0.1,1.1H146L146,47.9z"/>
	<path id="XMLID_131_" fill="#002E6D" d="M153.2,49.1c0.5,0.3,1.6,0.7,2.4,0.7c0.8,0,1.2-0.3,1.2-0.7c0-0.5-0.3-0.7-1.3-1
		c-1.8-0.6-2.5-1.6-2.5-2.7c0-1.7,1.4-2.9,3.6-2.9c1,0,2,0.2,2.5,0.5l-0.5,1.9c-0.4-0.2-1.2-0.5-1.9-0.5c-0.7,0-1.1,0.3-1.1,0.7
		c0,0.4,0.3,0.6,1.4,1c1.7,0.6,2.4,1.4,2.4,2.7c0,1.7-1.3,2.9-3.9,2.9c-1.2,0-2.2-0.3-2.9-0.6L153.2,49.1L153.2,49.1z"/>
	<polygon id="XMLID_130_" fill="#FF5000" points="58.3,61.7 56.3,72.3 54.5,72.3 56.5,61.7 58.3,61.7 	"/>
	<path id="XMLID_129_" fill="#FF5000" d="M58.9,72.3l1-5.3c0.2-0.9,0.3-1.7,0.4-2.4h1.6L61.8,66h0c0.7-1,1.7-1.6,2.8-1.6
		c1.1,0,2,0.7,2,2.1c0,0.3-0.1,0.9-0.1,1.3l-0.9,4.5h-1.8l0.8-4.4c0-0.3,0.1-0.6,0.1-0.9c0-0.6-0.2-1.1-1-1.1c-0.8,0-1.9,1-2.2,2.8
		l-0.7,3.6H58.9L58.9,72.3z"/>
	<path id="XMLID_128_" fill="#FF5000" d="M68,72.3l1-5.3c0.2-0.9,0.3-1.7,0.4-2.4H71L70.9,66h0c0.7-1,1.7-1.6,2.8-1.6
		c1.1,0,2,0.7,2,2.1c0,0.3-0.1,0.9-0.1,1.3l-0.9,4.5h-1.8l0.8-4.4c0-0.3,0.1-0.6,0.1-0.9c0-0.6-0.2-1.1-1-1.1c-0.8,0-1.9,1-2.2,2.8
		l-0.7,3.6H68L68,72.3z"/>
	<path id="XMLID_125_" fill="#FF5000" d="M79.2,69.3c0,1.1,0.6,1.8,1.5,1.8c1.4,0,2.3-1.9,2.3-3.4c0-0.8-0.3-1.8-1.5-1.8
		C80,65.9,79.2,67.8,79.2,69.3L79.2,69.3z M84.9,67.6c0,2.6-1.8,4.9-4.5,4.9c-1.9,0-3.2-1.3-3.2-3.2c0-2.6,1.8-4.9,4.5-4.9
		C83.8,64.4,84.9,65.9,84.9,67.6L84.9,67.6z"/>
	<path id="XMLID_124_" fill="#FF5000" d="M88.3,64.6l0.5,3.8c0.1,0.9,0.2,1.5,0.2,2h0c0.2-0.5,0.4-1,0.8-2l1.9-3.9h2l-4.3,7.7h-1.9
		l-1.3-7.7H88.3L88.3,64.6z"/>
	<path id="XMLID_121_" fill="#FF5000" d="M99.6,65.9c-0.2,0-0.4-0.1-0.8-0.1c-1.7,0-3,1.9-3,3.7c0,0.8,0.3,1.5,1.1,1.5
		c0.9,0,1.9-1.1,2.3-3L99.6,65.9L99.6,65.9z M98.8,72.3c0-0.5,0.1-1.1,0.1-1.7h0c-0.8,1.4-1.8,1.9-2.8,1.9c-1.4,0-2.3-1.1-2.3-2.6
		c0-2.6,1.8-5.4,5.4-5.4c0.8,0,1.7,0.2,2.3,0.3l-0.8,4c-0.2,1.2-0.3,2.6-0.3,3.5H98.8L98.8,72.3z"/>
	<path id="XMLID_120_" fill="#FF5000" d="M106.6,62.5l-0.4,2.1h1.7l-0.3,1.4H106l-0.6,3.1c-0.1,0.4-0.1,0.8-0.1,1.1
		c0,0.4,0.2,0.7,0.7,0.7c0.2,0,0.4,0,0.6,0l-0.2,1.4c-0.3,0.1-0.8,0.2-1.2,0.2c-1.3,0-1.8-0.7-1.8-1.6c0-0.4,0-0.9,0.2-1.4l0.7-3.4
		h-1l0.3-1.4h1l0.3-1.7L106.6,62.5L106.6,62.5z"/>
	<path id="XMLID_117_" fill="#FF5000" d="M110.1,62.5c0-0.7,0.5-1.1,1.1-1.1c0.6,0,1,0.4,1,1c0,0.7-0.5,1.1-1.1,1.1
		C110.5,63.5,110.1,63.1,110.1,62.5L110.1,62.5z M108.4,72.3l1.5-7.7h1.9l-1.5,7.7H108.4L108.4,72.3z"/>
	<path id="XMLID_114_" fill="#FF5000" d="M114.8,69.3c0,1.1,0.6,1.8,1.5,1.8c1.4,0,2.3-1.9,2.3-3.4c0-0.8-0.3-1.8-1.5-1.8
		C115.7,65.9,114.8,67.8,114.8,69.3L114.8,69.3z M120.5,67.6c0,2.6-1.8,4.9-4.5,4.9c-1.9,0-3.2-1.3-3.2-3.2c0-2.6,1.8-4.9,4.5-4.9
		C119.4,64.4,120.5,65.9,120.5,67.6L120.5,67.6z"/>
	<path id="XMLID_113_" fill="#FF5000" d="M121.7,72.3l1-5.3c0.2-0.9,0.3-1.7,0.4-2.4h1.6l-0.2,1.4h0c0.7-1,1.7-1.6,2.8-1.6
		c1.1,0,2,0.7,2,2.1c0,0.3-0.1,0.9-0.1,1.3l-0.9,4.5h-1.8l0.8-4.4c0-0.3,0.1-0.6,0.1-0.9c0-0.6-0.2-1.1-1-1.1c-0.8,0-1.9,1-2.2,2.8
		l-0.7,3.6H121.7L121.7,72.3z"/>
	<path id="XMLID_110_" fill="#FF5000" d="M136.4,69.2c0,0.3-0.1,0.6-0.1,0.9c0,0.6,0.4,1,1,1c1.6,0,2.7-2.1,2.7-3.6
		c0-0.9-0.4-1.6-1.2-1.6c-0.9,0-1.9,1-2.2,2.5L136.4,69.2L136.4,69.2z M138,61.1l-1,4.7h0c0.6-0.8,1.5-1.3,2.5-1.3
		c1.6,0,2.3,1.3,2.3,2.7c0,2.4-1.7,5.3-5,5.3c-1.6,0-2.6-0.7-2.6-2.1c0-0.4,0.1-0.9,0.1-1.3l1.6-8H138L138,61.1z"/>
	<path id="XMLID_109_" fill="#FF5000" d="M145.3,64.6l0.6,3.7c0.1,0.8,0.2,1.4,0.3,1.9h0c0.2-0.5,0.4-1,0.7-1.8l1.7-3.8h1.9
		l-2.8,5.7c-0.9,1.9-1.8,3.2-2.8,4.2c-0.9,0.9-1.9,1.2-2.4,1.3l-0.4-1.6c0.3-0.1,0.9-0.3,1.4-0.7c0.5-0.4,1-0.9,1.4-1.5
		c0.1-0.1,0.1-0.2,0-0.4l-1.5-7.1H145.3L145.3,64.6z"/>
	<path id="XMLID_106_" fill="#FF5000" d="M156.4,70.8c0.4,0,0.8,0.1,1.2,0.1c1.4,0,2.6-0.5,3.4-1.3c0.8-0.9,1.3-2.2,1.3-3.5
		c0-1.8-0.9-3-3.2-3c-0.4,0-0.9,0-1.2,0.1L156.4,70.8L156.4,70.8z M156.2,61.8c0.9-0.2,1.8-0.2,2.8-0.2c1.7,0,3.1,0.4,3.9,1.3
		c0.7,0.7,1.2,1.7,1.2,3.1c0,2-0.8,3.8-2.2,5c-1.2,1-2.8,1.4-5,1.4c-1.1,0-2.2-0.1-2.8-0.2L156.2,61.8L156.2,61.8z"/>
	<path id="XMLID_103_" fill="#FF5000" d="M169.5,65.8c-1.2,0-1.9,1-2.1,2c1.9,0,3.1-0.2,3.1-1.2C170.5,66.1,170.1,65.8,169.5,65.8
		L169.5,65.8z M171.3,71.9c-0.8,0.4-1.8,0.6-2.7,0.6c-2.1,0-3.2-1.3-3.2-3.2c0-2.3,1.7-4.9,4.4-4.9c1.5,0,2.5,0.9,2.5,2.2
		c0,2-2.1,2.6-5.1,2.6c0,0.3,0,0.8,0.2,1.1c0.3,0.5,0.9,0.8,1.6,0.8c0.9,0,1.6-0.2,2.1-0.5L171.3,71.9L171.3,71.9z"/>
	<path id="XMLID_102_" fill="#FF5000" d="M173.4,70.6c0.4,0.2,1.2,0.5,1.9,0.5c0.7,0,1.2-0.4,1.2-1c0-0.5-0.3-0.8-1-1.2
		c-0.9-0.5-1.5-1.1-1.5-2c0-1.5,1.3-2.5,3.1-2.5c0.8,0,1.5,0.2,1.8,0.4l-0.5,1.3c-0.3-0.2-0.8-0.3-1.4-0.3c-0.7,0-1.2,0.4-1.2,0.9
		c0,0.4,0.3,0.7,1,1.1c0.8,0.5,1.6,1.1,1.6,2.1c0,1.7-1.4,2.6-3.3,2.6c-0.9,0-1.7-0.3-2.2-0.6L173.4,70.6L173.4,70.6z"/>
	<path id="XMLID_99_" fill="#FF5000" d="M181.7,62.5c0-0.7,0.5-1.1,1.1-1.1c0.6,0,1,0.4,1,1c0,0.7-0.5,1.1-1.1,1.1
		C182.1,63.5,181.7,63.1,181.7,62.5L181.7,62.5z M179.9,72.3l1.5-7.7h1.9l-1.5,7.7H179.9L179.9,72.3z"/>
	<path id="XMLID_96_" fill="#FF5000" d="M190.1,66.1c-0.2-0.1-0.6-0.2-1-0.2c-1.6,0-2.8,1.7-2.8,3.4c0,0.8,0.3,1.6,1.2,1.6
		c0.9,0,1.8-1.1,2.1-2.5L190.1,66.1L190.1,66.1z M184.6,73.7c0.5,0.3,1.3,0.5,2,0.5c1.2,0,2.1-0.6,2.5-2.4l0.2-0.9h0
		c-0.6,0.9-1.4,1.4-2.4,1.4c-1.5,0-2.4-1.3-2.4-2.7c0-2.6,1.9-5.1,5.1-5.1c1,0,2,0.2,2.7,0.5l-1.2,6.4c-0.3,1.5-0.7,2.7-1.6,3.4
		c-0.8,0.7-1.9,0.9-2.9,0.9c-1,0-1.9-0.2-2.4-0.5L184.6,73.7L184.6,73.7z"/>
	<path id="XMLID_95_" fill="#FF5000" d="M193.2,72.3l1-5.3c0.2-0.9,0.3-1.7,0.4-2.4h1.6l-0.2,1.4h0c0.7-1,1.7-1.6,2.8-1.6
		c1.1,0,2,0.7,2,2.1c0,0.3-0.1,0.9-0.1,1.3l-0.9,4.5H198l0.8-4.4c0-0.3,0.1-0.6,0.1-0.9c0-0.6-0.2-1.1-1-1.1c-0.8,0-1.9,1-2.2,2.8
		l-0.7,3.6H193.2L193.2,72.3z"/>
</g>
</svg>
