<svg id="Layer_1" data-name="Layer 1" xmlns="http://www.w3.org/2000/svg" viewBox="0 0 212 76.89"><defs><style>.cls-1{fill:#005596;}.cls-2{fill:#ff5000;}</style></defs><title>IST_newLogo</title><path class="cls-1" d="M37.32,40.73c.4,0,.8-.05,1.19-.08v2.28a13.45,13.45,0,0,1-2.93.39c-2.91,0-3.53-1.58-3.53-4.4v-6.4H29.54V29.93h2.51V27.37L35.78,26v4h2.81v2.59H35.78v6c0,1.71.25,2.17,1.54,2.17m-14,2.59c-2.91,0-5.44-1.19-5.49-4.17h3.46a1.82,1.82,0,0,0,2,1.58c1,0,1.79-.44,1.79-1.45s-1.79-1.48-2.54-1.66C20.17,37,18,36.48,18,33.45c0-2.72,3.16-3.91,5.34-3.91,2.64,0,4.87,1,5,3.86H25c0-.88-.85-1.27-1.69-1.27-1,0-1.49.31-1.49,1.16,0,2,7.13.88,7.13,5.75,0,2.85-3.33,4.27-5.64,4.27m-7.81-.39H11.77v-13H15.5ZM35.72,13.18.47,26.5,13.8,61.75,49.05,48.42Z"/><path class="cls-2" d="M83.13,13.4a5,5,0,1,1-6.36-2.92,5,5,0,0,1,6.36,2.92"/><path class="cls-2" d="M68.23,4.86a4.25,4.25,0,1,1-5.46-2.51,4.25,4.25,0,0,1,5.46,2.51"/><path class="cls-2" d="M53.9,2.58A3.66,3.66,0,1,1,49.19.42,3.67,3.67,0,0,1,53.9,2.58"/><path class="cls-2" d="M40.53,5.63a3,3,0,1,1-3.81-1.75,3,3,0,0,1,3.81,1.75"/><path class="cls-2" d="M15.84,24.87A2.23,2.23,0,1,1,13,23.55a2.23,2.23,0,0,1,2.86,1.32"/><path class="cls-2" d="M22.14,17.57a2.33,2.33,0,1,1-3-1.38,2.33,2.33,0,0,1,3,1.38"/><path class="cls-2" d="M30.28,11.3a2.67,2.67,0,1,1-3.43-1.58,2.67,2.67,0,0,1,3.43,1.58"/><path class="cls-1" d="M57.22,22.13V34.68H54.37V22.13Z"/><path class="cls-1" d="M59.79,28.48c0-1.14,0-2.1-.07-2.91h2.46l.13,1.25h.06a3.33,3.33,0,0,1,2.81-1.45c1.86,0,3.26,1.23,3.26,3.91v5.4H65.6v-5c0-1.17-.41-2-1.43-2a1.51,1.51,0,0,0-1.43,1.06,2,2,0,0,0-.11.71v5.25H59.79Z"/><path class="cls-1" d="M73.87,23v2.61h2v2.09h-2V31c0,1.1.26,1.6,1.12,1.6a4.6,4.6,0,0,0,.84-.07l0,2.14a5.55,5.55,0,0,1-1.84.24,2.94,2.94,0,0,1-2.12-.78,3.77,3.77,0,0,1-.78-2.7V27.66H69.89V25.57H71.1v-2Z"/><path class="cls-1" d="M79.66,31c.09,1.17,1.25,1.73,2.57,1.73a8,8,0,0,0,2.51-.37l.37,1.92a9,9,0,0,1-3.3.56c-3.09,0-4.86-1.79-4.86-4.64a4.56,4.56,0,0,1,4.6-4.86c2.94,0,4.06,2.29,4.06,4.54A6.71,6.71,0,0,1,85.53,31ZM83,29.09a1.64,1.64,0,0,0-1.6-1.84,1.86,1.86,0,0,0-1.75,1.84Z"/><path class="cls-1" d="M96,25.57c0,.58-.07,1.34-.07,2.7v5.08a5.23,5.23,0,0,1-1.38,4.1,5.62,5.62,0,0,1-3.71,1.12,7.1,7.1,0,0,1-3.28-.71l.56-2.14a5.6,5.6,0,0,0,2.64.69A2.17,2.17,0,0,0,93.15,34v-.6h0a2.91,2.91,0,0,1-2.46,1.19c-2.25,0-3.85-1.82-3.85-4.45,0-2.92,1.9-4.79,4.13-4.79a2.75,2.75,0,0,1,2.5,1.28h0l.09-1.08Zm-2.91,3.71a2.24,2.24,0,0,0-.06-.52,1.55,1.55,0,0,0-1.53-1.25c-1,0-1.86.93-1.86,2.59,0,1.36.67,2.42,1.86,2.42A1.54,1.54,0,0,0,93,31.36a2.39,2.39,0,0,0,.09-.75Z"/><path class="cls-1" d="M98,28.57c0-1.34,0-2.21-.07-3h2.44l.09,1.68h.07A2.68,2.68,0,0,1,103,25.37a3,3,0,0,1,.6,0v2.66a4.1,4.1,0,0,0-.76-.07,1.82,1.82,0,0,0-1.94,1.43,3.32,3.32,0,0,0-.06.63v4.62H98Z"/><path class="cls-1" d="M109.69,34.68l-.17-.91h-.06a3.28,3.28,0,0,1-2.61,1.12,2.79,2.79,0,0,1-2.94-2.79c0-2.37,2.12-3.5,5.34-3.48v-.13c0-.48-.26-1.17-1.66-1.17a5.12,5.12,0,0,0-2.51.69l-.52-1.83a7.53,7.53,0,0,1,3.54-.8c3,0,4,1.79,4,3.93v3.17a13.94,13.94,0,0,0,.13,2.21Zm-.33-4.3c-1.49,0-2.64.33-2.64,1.43a1,1,0,0,0,1.12,1.08,1.55,1.55,0,0,0,1.47-1,2,2,0,0,0,.06-.49Z"/><path class="cls-1" d="M117.1,23v2.61h2v2.09h-2V31c0,1.1.26,1.6,1.12,1.6a4.6,4.6,0,0,0,.84-.07l0,2.14a5.56,5.56,0,0,1-1.84.24,2.94,2.94,0,0,1-2.12-.78,3.78,3.78,0,0,1-.78-2.7V27.66h-1.21V25.57h1.21v-2Z"/><path class="cls-1" d="M122.69,31c.09,1.17,1.25,1.73,2.57,1.73a8,8,0,0,0,2.51-.37l.37,1.92a9,9,0,0,1-3.29.56c-3.09,0-4.86-1.79-4.86-4.64a4.56,4.56,0,0,1,4.6-4.86c2.94,0,4.06,2.29,4.06,4.54a6.8,6.8,0,0,1-.09,1.12ZM126,29.09a1.64,1.64,0,0,0-1.6-1.84,1.86,1.86,0,0,0-1.75,1.84Z"/><path class="cls-1" d="M139.17,21.46V32c0,1,0,2.1.08,2.72h-2.51l-.13-1.34h0a3.18,3.18,0,0,1-2.85,1.55c-2.16,0-3.89-1.84-3.89-4.67,0-3.07,1.9-4.84,4.08-4.84a2.77,2.77,0,0,1,2.4,1h0V21.46Zm-2.83,8a4.79,4.79,0,0,0,0-.5,1.7,1.7,0,0,0-1.66-1.4c-1.28,0-2,1.15-2,2.59s.76,2.51,1.94,2.51a1.66,1.66,0,0,0,1.64-1.36,2.4,2.4,0,0,0,.08-.65Z"/><path class="cls-1" d="M145.39,31.76a7.26,7.26,0,0,0,3.15.78c1.3,0,2-.54,2-1.36s-.6-1.23-2.1-1.77c-2.09-.73-3.44-1.88-3.44-3.71,0-2.14,1.79-3.78,4.75-3.78a7.7,7.7,0,0,1,3.2.63l-.63,2.29a6,6,0,0,0-2.62-.6c-1.23,0-1.83.56-1.83,1.21s.71,1.15,2.33,1.77c2.22.82,3.26,2,3.26,3.74,0,2.1-1.62,3.89-5.06,3.89a8.22,8.22,0,0,1-3.56-.76Z"/><path class="cls-1" d="M157.65,31c.09,1.17,1.25,1.73,2.57,1.73a8,8,0,0,0,2.51-.37l.37,1.92a9,9,0,0,1-3.29.56c-3.09,0-4.86-1.79-4.86-4.64,0-2.31,1.43-4.86,4.6-4.86,2.94,0,4.06,2.29,4.06,4.54a6.8,6.8,0,0,1-.09,1.12ZM161,29.09a1.64,1.64,0,0,0-1.6-1.84,1.86,1.86,0,0,0-1.75,1.84Z"/><path class="cls-1" d="M171.73,34.45a6.89,6.89,0,0,1-2.53.41c-2.94,0-4.82-1.79-4.82-4.66,0-2.66,1.83-4.84,5.21-4.84a6.56,6.56,0,0,1,2.16.35l-.45,2.1a3.88,3.88,0,0,0-1.58-.28,2.36,2.36,0,0,0-2.44,2.55,2.37,2.37,0,0,0,2.49,2.55,4.36,4.36,0,0,0,1.62-.28Z"/><path class="cls-1" d="M181.69,31.76c0,1.19,0,2.16.08,2.92h-2.46l-.13-1.28h-.06a3.25,3.25,0,0,1-2.85,1.49c-1.84,0-3.2-1.15-3.2-4V25.57h2.85v4.9c0,1.32.43,2.12,1.42,2.12a1.52,1.52,0,0,0,1.41-1,1.6,1.6,0,0,0,.09-.61V25.57h2.85Z"/><path class="cls-1" d="M184,28.57c0-1.34,0-2.21-.07-3h2.44l.09,1.68h.08A2.67,2.67,0,0,1,189,25.37a3,3,0,0,1,.6,0v2.66a4.09,4.09,0,0,0-.76-.07,1.82,1.82,0,0,0-1.94,1.43,3.39,3.39,0,0,0-.06.63v4.62H184Z"/><path class="cls-1" d="M194,23a1.42,1.42,0,0,1-1.53,1.42,1.43,1.43,0,1,1,0-2.85A1.42,1.42,0,0,1,194,23ZM191,34.68V25.57h2.83v9.11Z"/><path class="cls-1" d="M199.31,23v2.61h2v2.09h-2V31c0,1.1.26,1.6,1.12,1.6a4.59,4.59,0,0,0,.84-.07l0,2.14a5.54,5.54,0,0,1-1.84.24,3,3,0,0,1-2.12-.78,3.78,3.78,0,0,1-.78-2.7V27.66h-1.21V25.57h1.21v-2Z"/><path class="cls-1" d="M205.1,25.57,206.46,30c.15.54.34,1.21.45,1.7H207c.13-.48.28-1.17.41-1.7l1.12-4.47h3l-2.12,6c-1.3,3.61-2.18,5.07-3.2,6a5.21,5.21,0,0,1-2.74,1.25l-.6-2.4a3.53,3.53,0,0,0,1.23-.48,3.24,3.24,0,0,0,1.17-1.14.73.73,0,0,0,.15-.41,1,1,0,0,0-.13-.47L202,25.57Z"/><path class="cls-1" d="M56.79,41.59H53.42V39.2h9.65v2.38H59.64V51.75H56.79Z"/><path class="cls-1" d="M64.82,48.1c.09,1.17,1.25,1.73,2.57,1.73a8,8,0,0,0,2.51-.37l.37,1.92a9,9,0,0,1-3.3.56c-3.09,0-4.86-1.79-4.86-4.64a4.56,4.56,0,0,1,4.6-4.86c2.94,0,4.06,2.29,4.06,4.54a6.76,6.76,0,0,1-.09,1.12Zm3.33-1.94a1.64,1.64,0,0,0-1.6-1.84,1.86,1.86,0,0,0-1.75,1.84Z"/><path class="cls-1" d="M79.31,51.53a6.88,6.88,0,0,1-2.53.41c-2.94,0-4.82-1.79-4.82-4.66,0-2.66,1.82-4.84,5.21-4.84a6.54,6.54,0,0,1,2.16.35l-.45,2.1a3.86,3.86,0,0,0-1.58-.28,2.55,2.55,0,0,0,.06,5.1A4.34,4.34,0,0,0,79,49.44Z"/><path class="cls-1" d="M81.08,38.53h2.83v5.19h0a3.39,3.39,0,0,1,1.12-.93,3.16,3.16,0,0,1,1.47-.35c1.81,0,3.18,1.25,3.18,4v5.33H86.89v-5c0-1.19-.41-2-1.47-2a1.51,1.51,0,0,0-1.42,1,1.82,1.82,0,0,0-.09.63v5.4H81.08Z"/><path class="cls-1" d="M91.79,45.55c0-1.14,0-2.1-.08-2.91h2.46l.13,1.25h.06a3.33,3.33,0,0,1,2.81-1.45c1.86,0,3.26,1.23,3.26,3.91v5.4H97.6v-5c0-1.17-.41-2-1.43-2a1.51,1.51,0,0,0-1.43,1.06,2,2,0,0,0-.11.71v5.25H91.79Z"/><path class="cls-1" d="M111.51,47.1a4.57,4.57,0,0,1-4.8,4.86A4.46,4.46,0,0,1,102,47.27a4.54,4.54,0,0,1,4.86-4.82A4.43,4.43,0,0,1,111.51,47.1Zm-6.59.09c0,1.56.65,2.74,1.86,2.74s1.81-1.1,1.81-2.74c0-1.36-.52-2.74-1.81-2.74S104.92,45.85,104.92,47.19Z"/><path class="cls-1" d="M113.26,38.53h2.83V51.75h-2.83Z"/><path class="cls-1" d="M127.17,47.1a4.57,4.57,0,0,1-4.8,4.86,4.46,4.46,0,0,1-4.71-4.69,4.54,4.54,0,0,1,4.86-4.82A4.43,4.43,0,0,1,127.17,47.1Zm-6.59.09c0,1.56.65,2.74,1.86,2.74s1.81-1.1,1.81-2.74c0-1.36-.52-2.74-1.81-2.74S120.58,45.85,120.58,47.19Z"/><path class="cls-1" d="M137.62,42.65c0,.58-.08,1.34-.08,2.7v5.09a5.23,5.23,0,0,1-1.38,4.1,5.62,5.62,0,0,1-3.71,1.12,7.1,7.1,0,0,1-3.28-.71l.56-2.14a5.6,5.6,0,0,0,2.64.69,2.17,2.17,0,0,0,2.36-2.4v-.6h0a2.92,2.92,0,0,1-2.46,1.19c-2.25,0-3.85-1.82-3.85-4.45,0-2.92,1.9-4.78,4.13-4.78a2.75,2.75,0,0,1,2.5,1.28h0l.09-1.08Zm-2.9,3.71a2.27,2.27,0,0,0-.06-.52,1.55,1.55,0,0,0-1.53-1.25c-1,0-1.86.93-1.86,2.59,0,1.36.67,2.42,1.86,2.42a1.53,1.53,0,0,0,1.49-1.15,2.39,2.39,0,0,0,.09-.75Z"/><path class="cls-1" d="M142.56,40.12A1.42,1.42,0,0,1,141,41.53a1.43,1.43,0,1,1,0-2.85A1.42,1.42,0,0,1,142.56,40.12Zm-2.92,11.64V42.65h2.83v9.11Z"/><path class="cls-1" d="M146.92,48.1c.09,1.17,1.25,1.73,2.57,1.73a8,8,0,0,0,2.51-.37l.37,1.92a9,9,0,0,1-3.29.56c-3.09,0-4.86-1.79-4.86-4.64a4.56,4.56,0,0,1,4.6-4.86c2.94,0,4.06,2.29,4.06,4.54a6.81,6.81,0,0,1-.09,1.12Zm3.33-1.94a1.64,1.64,0,0,0-1.6-1.84,1.86,1.86,0,0,0-1.75,1.84Z"/><path class="cls-1" d="M154.35,49.28a5.53,5.53,0,0,0,2.44.69c.86,0,1.21-.3,1.21-.76s-.28-.69-1.34-1c-1.88-.63-2.61-1.66-2.59-2.74,0-1.69,1.45-3,3.7-3a6.13,6.13,0,0,1,2.57.52l-.5,2a4.44,4.44,0,0,0-2-.52c-.69,0-1.08.28-1.08.75s.35.65,1.47,1c1.73.6,2.46,1.47,2.48,2.81,0,1.69-1.34,2.94-3.95,2.94a6.43,6.43,0,0,1-2.94-.63Z"/><path class="cls-2" d="M57.23,62.14,55.16,73.06h-1.9l2.08-10.93Z"/><path class="cls-2" d="M57.78,73.06l1-5.45c.19-.94.31-1.77.41-2.45h1.67l-.16,1.43h0A3.38,3.38,0,0,1,63.59,65a1.93,1.93,0,0,1,2,2.17,7.73,7.73,0,0,1-.15,1.31l-.88,4.59H62.7l.84-4.46a5.94,5.94,0,0,0,.1-.94c0-.65-.24-1.13-1-1.13s-2,1-2.3,2.89l-.68,3.65Z"/><path class="cls-2" d="M67.1,73.06l1-5.45c.19-.94.31-1.77.41-2.45H70.2L70,66.6h0A3.38,3.38,0,0,1,72.9,65a1.93,1.93,0,0,1,2,2.17,7.77,7.77,0,0,1-.15,1.31l-.88,4.59H72l.84-4.46a6,6,0,0,0,.1-.94c0-.65-.24-1.13-1-1.13s-2,1-2.3,2.89L69,73.06Z"/><path class="cls-2" d="M84.41,68.27a4.72,4.72,0,0,1-4.57,5A3.07,3.07,0,0,1,76.61,70a4.73,4.73,0,0,1,4.56-5A3.09,3.09,0,0,1,84.41,68.27Zm-5.85,1.67c0,1.09.58,1.85,1.54,1.85,1.41,0,2.35-1.95,2.35-3.52,0-.81-.36-1.82-1.51-1.82C79.44,66.45,78.56,68.46,78.56,69.94Z"/><path class="cls-2" d="M87.89,65.17l.5,3.92c.1.94.19,1.54.23,2.06h0c.19-.5.42-1.07.86-2l2-4h2.09l-4.39,7.89h-1.9l-1.35-7.89Z"/><path class="cls-2" d="M98.66,73.06c0-.47.08-1.1.15-1.78h0a3.16,3.16,0,0,1-2.82,2,2.4,2.4,0,0,1-2.33-2.69A5.41,5.41,0,0,1,99.16,65a8.4,8.4,0,0,1,2.38.36l-.81,4.12a18.36,18.36,0,0,0-.32,3.6Zm.78-6.53a3.15,3.15,0,0,0-.78-.08c-1.75,0-3.1,2-3.1,3.76,0,.83.31,1.51,1.14,1.51s1.94-1.1,2.32-3.11Z"/><path class="cls-2" d="M106.66,63l-.41,2.17H108l-.29,1.46H106l-.63,3.19a7,7,0,0,0-.13,1.12.62.62,0,0,0,.7.7,4.19,4.19,0,0,0,.65,0l-.18,1.47a4.27,4.27,0,0,1-1.23.16c-1.3,0-1.88-.71-1.88-1.62a6.5,6.5,0,0,1,.18-1.48l.68-3.52h-1.07l.28-1.46h1.07l.32-1.7Z"/><path class="cls-2" d="M108.43,73.06l1.49-7.89h1.9l-1.51,7.89Zm1.8-10a1.12,1.12,0,0,1,1.13-1.15,1,1,0,0,1,1,1A1.12,1.12,0,0,1,111.2,64,.94.94,0,0,1,110.22,63Z"/><path class="cls-2" d="M120.86,68.27a4.72,4.72,0,0,1-4.57,5A3.07,3.07,0,0,1,113.06,70a4.73,4.73,0,0,1,4.56-5A3.09,3.09,0,0,1,120.86,68.27ZM115,69.94c0,1.09.58,1.85,1.54,1.85,1.41,0,2.35-1.95,2.35-3.52,0-.81-.36-1.82-1.51-1.82C115.88,66.45,115,68.46,115,69.94Z"/><path class="cls-2" d="M122.07,73.06l1-5.45c.2-.94.31-1.77.41-2.45h1.67L125,66.6h0a3.38,3.38,0,0,1,2.84-1.6,1.93,1.93,0,0,1,2,2.17,7.76,7.76,0,0,1-.15,1.31l-.88,4.59H127l.84-4.46a5.94,5.94,0,0,0,.1-.94c0-.65-.24-1.13-1-1.13s-2,1-2.3,2.89L124,73.06Z"/><path class="cls-2" d="M138.8,61.55l-1,4.78h0A3.2,3.2,0,0,1,140.43,65c1.69,0,2.38,1.38,2.38,2.79a5.23,5.23,0,0,1-5.09,5.46c-1.65,0-2.64-.7-2.63-2.12a7.62,7.62,0,0,1,.15-1.36l1.65-8.2Zm-1.67,8.3a4.07,4.07,0,0,0-.08.94.93.93,0,0,0,1.05,1c1.65,0,2.74-2.12,2.74-3.66,0-.88-.37-1.6-1.25-1.6s-2,1-2.3,2.59Z"/><path class="cls-2" d="M146.25,65.17l.62,3.81c.15.84.24,1.43.31,2h0c.19-.49.39-1,.76-1.88l1.7-3.89h2L148.78,71a15.5,15.5,0,0,1-2.89,4.34,5.2,5.2,0,0,1-2.43,1.36L143,75.07a4.94,4.94,0,0,0,1.39-.68,5,5,0,0,0,1.39-1.57.49.49,0,0,0,0-.37l-1.57-7.28Z"/><path class="cls-2" d="M157.41,62.3a16.23,16.23,0,0,1,2.89-.24,5.59,5.59,0,0,1,4,1.31,4.12,4.12,0,0,1,1.25,3.21,6.56,6.56,0,0,1-2.22,5.07,7.61,7.61,0,0,1-5.11,1.47,23.59,23.59,0,0,1-2.84-.16Zm.15,9.22a9.38,9.38,0,0,0,1.2.06,4.49,4.49,0,0,0,3.45-1.35,5.22,5.22,0,0,0,1.3-3.63c0-1.82-1-3-3.24-3a6.59,6.59,0,0,0-1.22.1Z"/><path class="cls-2" d="M172.83,72.61a6.34,6.34,0,0,1-2.79.62A3,3,0,0,1,166.8,70c0-2.38,1.75-5,4.47-5a2.26,2.26,0,0,1,2.54,2.22c0,2-2.12,2.68-5.17,2.61a2.18,2.18,0,0,0,.21,1.12,1.75,1.75,0,0,0,1.62.81,4.67,4.67,0,0,0,2.17-.52ZM171,66.4a2.43,2.43,0,0,0-2.19,2c1.95,0,3.19-.24,3.19-1.18C172,66.71,171.63,66.4,171,66.4Z"/><path class="cls-2" d="M175,71.3a4.31,4.31,0,0,0,1.9.54c.76,0,1.22-.45,1.22-1s-.26-.81-1-1.22a2.43,2.43,0,0,1-1.56-2.06c0-1.52,1.33-2.59,3.19-2.59a3.92,3.92,0,0,1,1.86.41l-.49,1.36a3.15,3.15,0,0,0-1.47-.36c-.71,0-1.2.39-1.2.92s.36.75,1,1.09a2.57,2.57,0,0,1,1.64,2.12c0,1.73-1.46,2.69-3.36,2.69a4.09,4.09,0,0,1-2.2-.57Z"/><path class="cls-2" d="M181.64,73.06l1.49-7.89H185l-1.51,7.89Zm1.8-10a1.12,1.12,0,0,1,1.13-1.15,1,1,0,0,1,1,1A1.12,1.12,0,0,1,184.41,64,.94.94,0,0,1,183.44,63Z"/><path class="cls-2" d="M186.39,74.47a4.68,4.68,0,0,0,2.09.47c1.23,0,2.17-.58,2.56-2.42l.19-.89h0A2.89,2.89,0,0,1,188.72,73a2.56,2.56,0,0,1-2.48-2.79A5.11,5.11,0,0,1,191.41,65a7,7,0,0,1,2.74.55L193,72.06a5.92,5.92,0,0,1-1.62,3.52,4.61,4.61,0,0,1-2.93.88,5.06,5.06,0,0,1-2.46-.53Zm5.71-7.81a2.6,2.6,0,0,0-1-.19c-1.65,0-2.82,1.78-2.82,3.48,0,.83.32,1.6,1.26,1.6s1.88-1.12,2.16-2.54Z"/><path class="cls-2" d="M195.29,73.06l1-5.45c.2-.94.31-1.77.41-2.45h1.67l-.16,1.43h0a3.38,3.38,0,0,1,2.84-1.6,1.93,1.93,0,0,1,2,2.17,7.76,7.76,0,0,1-.15,1.31l-.88,4.59H200.2l.84-4.46a5.94,5.94,0,0,0,.1-.94c0-.65-.24-1.13-1-1.13s-2,1-2.3,2.89l-.68,3.65Z"/></svg>