<?xml version="1.0" encoding="utf-8"?>
<!-- Generator: Adobe Illustrator 18.1.1, SVG Export Plug-In . SVG Version: 6.00 Build 0)  -->
<svg version="1.1" id="Layer_1" xmlns="http://www.w3.org/2000/svg" xmlns:xlink="http://www.w3.org/1999/xlink" x="0px" y="0px"
	 viewBox="6.8 161.8 486.3 176.4" enable-background="new 6.8 161.8 486.3 176.4" xml:space="preserve">
<g id="XMLID_94_">
	<path id="XMLID_196_" fill="#002E6D" d="M88,191.7L6.8,222.4l30.7,81.1l81.1-30.7L88,191.7L88,191.7z M41.5,260.4H33v-30h8.5V260.4
		L41.5,260.4z M59.4,261.3c-6.6,0-12.5-2.8-12.7-9.7h8c0.2,2.4,2.1,3.5,4.7,3.5c2.4,0,4.2-0.9,4.2-3.3s-4.2-3.3-5.9-3.8
		c-5.4-1.4-10.6-2.6-10.6-9.7c0-6.4,7.3-9,12.3-9c6.1,0,11.3,2.4,11.6,9h-7.8c0-2.1-1.9-2.8-4-2.8c-2.4,0-3.5,0.7-3.5,2.6
		c0,4.7,16.5,2.1,16.5,13.2C72.4,258,64.9,261.3,59.4,261.3 M91.7,255.2c0.9,0,1.9-0.2,2.8-0.2v5.2c-0.9,0.5-5.7,0.9-6.8,0.9
		c-6.6,0-8-3.5-8-10.1v-14.6h-5.9v-5.9h5.9v-5.9l8.5-3.3v9.2h6.4v5.9h-6.4v13.9C88.2,254.2,88.7,255.2,91.7,255.2"/>
	<path id="XMLID_195_" fill="#F79239" d="M197.2,192.2c2.1,5.9-0.9,12.5-6.8,14.6c-5.9,2.1-12.5-0.9-14.6-6.8s0.7-12.5,6.8-14.6
		C188.4,183.5,195,186.3,197.2,192.2"/>
	<g id="XMLID_191_">
		<g>
			<defs>
				<rect id="SVGID_1_" x="6.8" y="161.8" width="486.3" height="176.4"/>
			</defs>
			<clipPath id="SVGID_2_">
				<use xlink:href="#SVGID_1_"  overflow="visible"/>
			</clipPath>
			<path id="XMLID_194_" clip-path="url(#SVGID_2_)" fill="#F79239" d="M163,172.6c1.9,5.2-0.7,10.6-5.7,12.5
				c-5.2,1.9-10.6-0.7-12.5-5.9c-1.9-5,0.7-10.6,5.7-12.5C155.4,164.9,161.1,167.5,163,172.6"/>
		</g>
		<g>
			<defs>
				<rect id="SVGID_3_" x="6.8" y="161.8" width="486.3" height="176.4"/>
			</defs>
			<clipPath id="SVGID_4_">
				<use xlink:href="#SVGID_3_"  overflow="visible"/>
			</clipPath>
			<path id="XMLID_193_" clip-path="url(#SVGID_4_)" fill="#F79239" d="M130,167.5c1.7,4.5-0.7,9.2-5,10.8c-4.5,1.7-9.2-0.7-10.8-5
				c-1.7-4.5,0.7-9.2,5-10.8C123.3,160.8,128.3,163,130,167.5"/>
		</g>
	</g>
	<path id="XMLID_190_" fill="#F79239" d="M99.1,174.3c1.4,3.5-0.5,7.5-4,8.7c-3.5,1.4-7.5-0.5-8.7-4c-1.4-3.3,0.5-7.3,4-8.7
		C93.9,169.1,97.9,170.8,99.1,174.3"/>
	<path id="XMLID_189_" fill="#F79239" d="M42.2,218.6c0.9,2.6-0.5,5.7-3.1,6.6c-2.6,0.9-5.7-0.5-6.6-3.1c-0.9-2.6,0.5-5.7,3.1-6.6
		C38.2,214.6,41.3,216,42.2,218.6"/>
	<path id="XMLID_188_" fill="#F79239" d="M56.8,201.9c0.9,2.8-0.5,5.9-3.1,6.8c-2.8,0.9-5.9-0.5-6.8-3.1c-0.9-2.8,0.5-5.9,3.1-6.8
		C52.6,197.6,55.7,199.1,56.8,201.9"/>
	<path id="XMLID_187_" fill="#F79239" d="M75.5,187.5c1.2,3.3-0.5,6.8-3.5,8c-3.3,1.2-6.8-0.5-8-3.5c-1.2-3.3,0.5-6.8,3.5-8
		C70.8,182.5,74.3,184.2,75.5,187.5"/>
	<polygon id="XMLID_186_" fill="#002E6D" points="137.5,212.5 137.5,241.3 131.1,241.3 131.1,212.5 	"/>
	<path id="XMLID_185_" fill="#002E6D" d="M143.4,227.1c0-2.6,0-5-0.2-6.6h5.7l0.2,2.8h0.2c0.9-1.4,3.1-3.3,6.4-3.3
		c4.2,0,7.5,2.8,7.5,9v12.5h-6.6V230c0-2.6-0.9-4.5-3.3-4.5c-1.9,0-2.8,1.2-3.3,2.4c-0.2,0.5-0.2,0.9-0.2,1.7v12h-6.6v-14.4H143.4z"
		/>
	<path id="XMLID_184_" fill="#002E6D" d="M175.9,214.4v5.9h4.7v4.7h-4.7v7.5c0,2.6,0.7,3.8,2.6,3.8c0.7,0,1.4,0,1.9-0.2v5
		c-0.9,0.2-2.4,0.5-4.2,0.5c-2.1,0-3.8-0.7-5-1.9s-1.9-3.3-1.9-6.1v-8.3h-2.8v-4.7h2.8v-4.7L175.9,214.4L175.9,214.4z"/>
	<path id="XMLID_181_" fill="#002E6D" d="M196.9,228.5c0-1.7-0.7-4.2-3.8-4.2c-2.8,0-3.8,2.6-4,4.2H196.9L196.9,228.5z M189.4,233
		c0.2,2.6,2.8,4,5.9,4c2.1,0,4-0.2,5.9-0.9l0.9,4.5c-2.1,0.9-4.7,1.2-7.5,1.2c-7.1,0-11.1-4-11.1-10.6c0-5.4,3.3-11.1,10.6-11.1
		c6.8,0,9.4,5.2,9.4,10.4c0,1.2-0.2,2.1-0.2,2.6H189.4L189.4,233z"/>
	<path id="XMLID_178_" fill="#002E6D" d="M220.3,228.8c0-0.5,0-0.9-0.2-1.2c-0.5-1.7-1.7-2.8-3.5-2.8c-2.4,0-4.2,2.1-4.2,5.9
		c0,3.1,1.7,5.7,4.2,5.7c1.7,0,3.1-1.2,3.5-2.6c0.2-0.5,0.2-1.2,0.2-1.7V228.8L220.3,228.8z M226.9,220.3c0,1.4-0.2,3.1-0.2,6.1
		v11.8c0,4-0.7,7.3-3.1,9.4c-2.4,1.9-5.4,2.6-8.5,2.6c-2.8,0-5.7-0.5-7.5-1.7l1.2-5c1.4,0.7,3.5,1.7,6.1,1.7c3.1,0,5.4-1.7,5.4-5.4
		v-1.4l0,0c-1.2,1.7-3.3,2.8-5.7,2.8c-5.2,0-9-4.2-9-10.1c0-6.8,4.5-11.1,9.4-11.1c2.8,0,4.7,1.2,5.7,3.1l0,0l0.2-2.6h5.9V220.3z"/>
	<path id="XMLID_177_" fill="#002E6D" d="M231.6,227.4c0-3.1,0-5.2-0.2-6.8h5.7l0.2,3.8h0.2c1.2-3.1,3.5-4.2,5.7-4.2
		c0.7,0,0.9,0,1.4,0v6.1c-0.5,0-0.9-0.2-1.7-0.2c-2.4,0-4,1.2-4.5,3.3c0,0.5-0.2,0.9-0.2,1.4v10.6h-6.6V227.4L231.6,227.4z"/>
	<path id="XMLID_174_" fill="#002E6D" d="M257.8,231.4c-3.5,0-6.1,0.7-6.1,3.3c0,1.7,1.2,2.6,2.6,2.6c1.7,0,3.1-1.2,3.3-2.4
		c0-0.2,0.2-0.7,0.2-1.2V231.4L257.8,231.4z M258.5,241.3l-0.5-2.1h-0.2c-1.4,1.7-3.5,2.6-5.9,2.6c-4.2,0-6.8-3.1-6.8-6.4
		c0-5.4,5-8,12.3-8v-0.2c0-1.2-0.7-2.6-3.8-2.6c-2.1,0-4.5,0.7-5.9,1.7l-1.2-4.2c1.4-0.7,4.2-1.9,8.3-1.9c7.1,0,9.2,4,9.2,9v7.3
		c0,2.1,0,4,0.2,5.2h-5.7V241.3z"/>
	<path id="XMLID_173_" fill="#002E6D" d="M275.5,214.4v5.9h4.7v4.7h-4.7v7.5c0,2.6,0.7,3.8,2.6,3.8c0.7,0,1.4,0,1.9-0.2v5
		c-0.9,0.2-2.4,0.5-4.2,0.5c-2.1,0-3.8-0.7-5-1.9c-1.2-1.2-1.9-3.3-1.9-6.1v-8.3h-2.4v-4.7h2.8v-4.7L275.5,214.4L275.5,214.4z"/>
	<path id="XMLID_170_" fill="#002E6D" d="M296.2,228.5c0-1.7-0.7-4.2-3.8-4.2c-2.8,0-3.8,2.6-4,4.2H296.2L296.2,228.5z M288.4,233
		c0.2,2.6,2.8,4,5.9,4c2.1,0,4-0.2,5.9-0.9l0.9,4.5c-2.1,0.9-4.7,1.2-7.5,1.2c-7.1,0-11.1-4-11.1-10.6c0-5.4,3.3-11.1,10.6-11.1
		c6.8,0,9.4,5.2,9.4,10.4c0,1.2-0.2,2.1-0.2,2.6H288.4L288.4,233z"/>
	<path id="XMLID_167_" fill="#002E6D" d="M319.8,229.2c0-0.2,0-0.7,0-1.2c-0.5-1.7-1.9-3.3-3.8-3.3c-3.1,0-4.5,2.6-4.5,5.9
		c0,3.5,1.7,5.9,4.5,5.9c1.9,0,3.3-1.2,3.8-3.1c0.2-0.5,0.2-0.9,0.2-1.4v-2.8H319.8z M326.4,210.8v24.3c0,2.4,0,5,0.2,6.4h-5.9
		l-0.2-3.1l0,0c-1.4,2.4-3.8,3.5-6.6,3.5c-5,0-9-4.2-9-10.8c0-7.1,4.5-11.1,9.4-11.1c2.6,0,4.5,0.9,5.4,2.4l0,0v-11.3h6.6V210.8z"/>
	<path id="XMLID_166_" fill="#002E6D" d="M340.8,234.7c1.7,0.9,4.5,1.9,7.3,1.9c3.1,0,4.5-1.2,4.5-3.1c0-1.9-1.4-2.8-5-4
		c-4.7-1.7-8-4.2-8-8.5c0-5,4-8.7,10.8-8.7c3.3,0,5.7,0.7,7.3,1.4l-1.4,5.2c-1.2-0.5-3.3-1.4-6.1-1.4c-2.8,0-4.2,1.2-4.2,2.8
		c0,1.9,1.7,2.6,5.4,4c5.2,1.9,7.5,4.5,7.5,8.7c0,5-3.8,9-11.6,9c-3.3,0-6.6-0.9-8.3-1.7L340.8,234.7L340.8,234.7z"/>
	<path id="XMLID_163_" fill="#002E6D" d="M376.7,228.5c0-1.7-0.7-4.2-3.8-4.2c-2.8,0-3.8,2.6-4,4.2H376.7L376.7,228.5z M369.1,233
		c0.2,2.6,2.8,4,5.9,4c2.1,0,4-0.2,5.9-0.9l0.9,4.5c-2.1,0.9-4.7,1.2-7.5,1.2c-7.1,0-11.1-4-11.1-10.6c0-5.4,3.3-11.1,10.6-11.1
		c6.8,0,9.4,5.2,9.4,10.4c0,1.2-0.2,2.1-0.2,2.6H369.1L369.1,233z"/>
	<path id="XMLID_162_" fill="#002E6D" d="M401.4,240.8c-1.2,0.5-3.3,0.9-5.9,0.9c-6.8,0-11.1-4-11.1-10.6c0-6.1,4.2-11.1,12-11.1
		c1.7,0,3.5,0.2,5,0.7l-0.9,5c-0.7-0.2-1.9-0.7-3.5-0.7c-3.5,0-5.7,2.4-5.7,5.9c0,3.8,2.6,5.9,5.7,5.9c1.7,0,2.8-0.2,3.8-0.7
		L401.4,240.8L401.4,240.8z"/>
	<path id="XMLID_161_" fill="#002E6D" d="M424.5,234.7c0,2.8,0,5,0.2,6.8h-5.7l-0.2-3.1h-0.2c-0.7,1.2-2.8,3.5-6.6,3.5
		c-4.2,0-7.3-2.6-7.3-9.2v-12.3h6.6v11.3c0,3.1,0.9,5,3.3,5c1.9,0,2.8-1.2,3.3-2.4c0.2-0.5,0.2-0.9,0.2-1.4v-12.5h6.6v14.2H424.5z"
		/>
	<path id="XMLID_160_" fill="#002E6D" d="M429.7,227.4c0-3.1,0-5.2-0.2-6.8h5.7l0.2,3.8h0.2c1.2-3.1,3.5-4.2,5.7-4.2
		c0.7,0,0.9,0,1.4,0v6.1c-0.5,0-0.9-0.2-1.7-0.2c-2.4,0-4,1.2-4.5,3.3c0,0.5-0.2,0.9-0.2,1.4v10.6h-6.6V227.4L429.7,227.4z"/>
	<path id="XMLID_157_" fill="#002E6D" d="M446,241.3v-21h6.6v21H446L446,241.3z M452.8,214.4c0,1.9-1.4,3.3-3.5,3.3
		s-3.5-1.4-3.3-3.3c0-1.9,1.4-3.3,3.5-3.3C451.4,211.1,452.6,212.5,452.8,214.4L452.8,214.4z"/>
	<path id="XMLID_156_" fill="#002E6D" d="M465.1,214.4v5.9h4.7v4.7h-4.7v7.5c0,2.6,0.7,3.8,2.6,3.8c0.7,0,1.4,0,1.9-0.2v5
		c-0.9,0.2-2.4,0.5-4.2,0.5c-2.1,0-3.8-0.7-5-1.9c-1.2-1.2-1.9-3.3-1.9-6.1v-8.3h-2.8v-4.7h2.8v-4.7L465.1,214.4L465.1,214.4z"/>
	<path id="XMLID_155_" fill="#002E6D" d="M478.3,220.3l3.1,10.4c0.2,1.2,0.7,2.8,0.9,4h0.2c0.2-1.2,0.7-2.6,0.9-4l2.6-10.4h7.1
		l-5,13.9c-3.1,8.3-5,11.6-7.3,13.7c-2.4,1.9-4.7,2.6-6.4,2.8l-1.4-5.4c0.7-0.2,1.9-0.5,2.8-1.2c0.9-0.5,2.1-1.7,2.6-2.6
		c0.2-0.2,0.2-0.7,0.2-0.9c0-0.2,0-0.5-0.2-1.2l-7.8-19.1H478.3L478.3,220.3z"/>
	<polygon id="XMLID_154_" fill="#002E6D" points="136.6,257.3 128.8,257.3 128.8,251.7 150.9,251.7 150.9,257.3 143.2,257.3 
		143.2,280.7 136.6,280.7 	"/>
	<path id="XMLID_151_" fill="#002E6D" d="M162.7,267.7c0-1.7-0.7-4.2-3.8-4.2c-2.8,0-3.8,2.6-4,4.2H162.7L162.7,267.7z M155.2,272.2
		c0.2,2.6,2.8,4,5.9,4c2.1,0,4-0.2,5.9-0.9l0.9,4.5c-2.1,0.9-4.7,1.2-7.5,1.2c-7.1,0-11.1-4-11.1-10.6c0-5.4,3.3-11.1,10.6-11.1
		c6.8,0,9.4,5.2,9.4,10.4c0,1.2-0.2,2.1-0.2,2.6H155.2L155.2,272.2z"/>
	<path id="XMLID_150_" fill="#002E6D" d="M188.4,280.2c-1.2,0.5-3.3,0.9-5.9,0.9c-6.8,0-11.1-4-11.1-10.6c0-6.1,4.2-11.1,12-11.1
		c1.7,0,3.5,0.2,5,0.7l-0.9,5c-0.7-0.2-1.9-0.7-3.5-0.7c-3.5,0-5.7,2.4-5.7,5.9c0,3.8,2.6,5.9,5.7,5.9c1.7,0,2.8-0.2,3.8-0.7
		L188.4,280.2L188.4,280.2z"/>
	<path id="XMLID_149_" fill="#002E6D" d="M192.5,250.2h6.6v12l0,0c0.7-0.9,1.7-1.7,2.6-2.1c0.9-0.5,2.1-0.7,3.3-0.7
		c4.2,0,7.3,2.8,7.3,9.2v12.3h-6.6v-11.6c0-2.8-0.9-4.7-3.3-4.7c-1.7,0-2.8,1.2-3.3,2.4c-0.2,0.5-0.2,0.9-0.2,1.4v12.5h-6.6v-30.7
		H192.5z"/>
	<path id="XMLID_148_" fill="#002E6D" d="M217.2,266.3c0-2.6,0-5-0.2-6.6h5.7l0.2,2.8h0.2c0.9-1.4,3.1-3.3,6.4-3.3
		c4.2,0,7.5,2.8,7.5,9v12.5h-6.6v-11.6c0-2.6-0.9-4.5-3.3-4.5c-1.9,0-2.8,1.2-3.3,2.4c-0.2,0.5-0.2,0.9-0.2,1.7v12H217v-14.4H217.2z
		"/>
	<path id="XMLID_145_" fill="#002E6D" d="M247.4,270c0,3.5,1.4,6.4,4.2,6.4c2.6,0,4.2-2.6,4.2-6.4c0-3.1-1.2-6.4-4.2-6.4
		C248.6,263.9,247.4,267,247.4,270L247.4,270z M262.7,270c0,7.8-5.4,11.1-11.1,11.1c-6.1,0-10.8-4-10.8-10.8
		c0-6.8,4.5-11.1,11.1-11.1C258.5,259.2,262.7,263.7,262.7,270L262.7,270z"/>
	<polygon id="XMLID_144_" fill="#002E6D" points="266.7,250.2 273.3,250.2 273.3,280.7 266.7,280.7 	"/>
	<path id="XMLID_141_" fill="#002E6D" d="M283.7,270c0,3.5,1.4,6.4,4.2,6.4c2.6,0,4.2-2.6,4.2-6.4c0-3.1-1.2-6.4-4.2-6.4
		C284.7,263.9,283.7,267,283.7,270L283.7,270z M298.8,270c0,7.8-5.4,11.1-11.1,11.1c-6.1,0-10.8-4-10.8-10.8
		c0-6.8,4.5-11.1,11.1-11.1C294.6,259.2,298.8,263.7,298.8,270L298.8,270z"/>
	<path id="XMLID_138_" fill="#002E6D" d="M316.3,268.2c0-0.5,0-0.9-0.2-1.2c-0.5-1.7-1.7-2.8-3.5-2.8c-2.4,0-4.2,2.1-4.2,5.9
		c0,3.1,1.7,5.7,4.2,5.7c1.7,0,3.1-1.2,3.5-2.6c0.2-0.5,0.2-1.2,0.2-1.7V268.2L316.3,268.2z M322.9,259.7c0,1.4-0.2,3.1-0.2,6.1
		v11.8c0,4-0.7,7.3-3.1,9.4c-2.4,1.9-5.4,2.6-8.5,2.6c-2.8,0-5.7-0.5-7.5-1.7l1.2-5c1.4,0.7,3.5,1.7,6.1,1.7c3.1,0,5.4-1.7,5.4-5.4
		v-1.4l0,0c-1.2,1.7-3.3,2.8-5.7,2.8c-5.2,0-9-4.2-9-10.1c0-6.8,4.5-11.1,9.4-11.1c2.8,0,4.7,1.2,5.7,3.1l0,0l0.2-2.6h5.9V259.7z"/>
	<path id="XMLID_135_" fill="#002E6D" d="M327.6,280.7v-21h6.6v21H327.6L327.6,280.7z M334.2,253.8c0,1.9-1.4,3.3-3.5,3.3
		s-3.5-1.4-3.3-3.3c0-1.9,1.4-3.3,3.5-3.3C332.8,250.5,334.2,251.9,334.2,253.8L334.2,253.8z"/>
	<path id="XMLID_132_" fill="#002E6D" d="M351.9,267.7c0-1.7-0.7-4.2-3.8-4.2c-2.8,0-3.8,2.6-4,4.2H351.9L351.9,267.7z M344.3,272.2
		c0.2,2.6,2.8,4,5.9,4c2.1,0,4-0.2,5.9-0.9l0.9,4.5c-2.1,0.9-4.7,1.2-7.5,1.2c-7.1,0-11.1-4-11.1-10.6c0-5.4,3.3-11.1,10.6-11.1
		c6.8,0,9.4,5.2,9.4,10.4c0,1.2-0.2,2.1-0.2,2.6H344.3L344.3,272.2z"/>
	<path id="XMLID_131_" fill="#002E6D" d="M361.3,275c1.2,0.7,3.8,1.7,5.7,1.7c1.9,0,2.8-0.7,2.8-1.7c0-1.2-0.7-1.7-3.1-2.4
		c-4.2-1.4-5.9-3.8-5.9-6.4c0-4,3.3-6.8,8.5-6.8c2.4,0,4.7,0.5,5.9,1.2l-1.2,4.5c-0.9-0.5-2.8-1.2-4.5-1.2s-2.6,0.7-2.6,1.7
		s0.7,1.4,3.3,2.4c4,1.4,5.7,3.3,5.7,6.4c0,4-3.1,6.8-9.2,6.8c-2.8,0-5.2-0.7-6.8-1.4L361.3,275L361.3,275z"/>
	<polygon id="XMLID_130_" fill="#F79239" points="137.5,304.7 132.8,329.7 128.5,329.7 133.3,304.7 	"/>
	<path id="XMLID_129_" fill="#F79239" d="M138.9,329.7l2.4-12.5c0.5-2.1,0.7-4,0.9-5.7h3.8l-0.2,3.3l0,0c1.7-2.4,4-3.8,6.6-3.8
		c2.6,0,4.7,1.7,4.7,5c0,0.7-0.2,2.1-0.2,3.1l-2.1,10.6h-4.2l1.9-10.4c0-0.7,0.2-1.4,0.2-2.1c0-1.4-0.5-2.6-2.4-2.6
		s-4.5,2.4-5.2,6.6l-1.7,8.5H138.9L138.9,329.7z"/>
	<path id="XMLID_128_" fill="#F79239" d="M160.4,329.7l2.4-12.5c0.5-2.1,0.7-4,0.9-5.7h3.8l-0.2,3.3l0,0c1.7-2.4,4-3.8,6.6-3.8
		s4.7,1.7,4.7,5c0,0.7-0.2,2.1-0.2,3.1l-2.1,10.6h-4.2l1.9-10.4c0-0.7,0.2-1.4,0.2-2.1c0-1.4-0.5-2.6-2.4-2.6
		c-1.9,0-4.5,2.4-5.2,6.6l-1.7,8.5H160.4L160.4,329.7z"/>
	<path id="XMLID_125_" fill="#F79239" d="M186.8,322.6c0,2.6,1.4,4.2,3.5,4.2c3.3,0,5.4-4.5,5.4-8c0-1.9-0.7-4.2-3.5-4.2
		C188.7,314.6,186.8,319.1,186.8,322.6L186.8,322.6z M200.2,318.6c0,6.1-4.2,11.6-10.6,11.6c-4.5,0-7.5-3.1-7.5-7.5
		c0-6.1,4.2-11.6,10.6-11.6C197.6,311.1,200.2,314.6,200.2,318.6L200.2,318.6z"/>
	<path id="XMLID_124_" fill="#F79239" d="M208.3,311.6l1.2,9c0.2,2.1,0.5,3.5,0.5,4.7l0,0c0.5-1.2,0.9-2.4,1.9-4.7l4.5-9.2h4.7
		l-10.1,18.2h-4.5l-3.1-18.2h5V311.6z"/>
	<path id="XMLID_121_" fill="#F79239" d="M234.9,314.6c-0.5,0-0.9-0.2-1.9-0.2c-4,0-7.1,4.5-7.1,8.7c0,1.9,0.7,3.5,2.6,3.5
		c2.1,0,4.5-2.6,5.4-7.1L234.9,314.6L234.9,314.6z M233,329.7c0-1.2,0.2-2.6,0.2-4l0,0c-1.9,3.3-4.2,4.5-6.6,4.5
		c-3.3,0-5.4-2.6-5.4-6.1c0-6.1,4.2-12.7,12.7-12.7c1.9,0,4,0.5,5.4,0.7l-1.9,9.4c-0.5,2.8-0.7,6.1-0.7,8.3L233,329.7L233,329.7z"/>
	<path id="XMLID_120_" fill="#F79239" d="M251.4,306.6l-0.9,5h4l-0.7,3.3H250l-1.4,7.3c-0.2,0.9-0.2,1.9-0.2,2.6
		c0,0.9,0.5,1.7,1.7,1.7c0.5,0,0.9,0,1.4,0l-0.5,3.3c-0.7,0.2-1.9,0.5-2.8,0.5c-3.1,0-4.2-1.7-4.2-3.8c0-0.9,0-2.1,0.5-3.3l1.7-8
		h-2.4l0.7-3.3h2.4l0.7-4L251.4,306.6L251.4,306.6z"/>
	<path id="XMLID_117_" fill="#F79239" d="M259.7,306.6c0-1.7,1.2-2.6,2.6-2.6c1.4,0,2.4,0.9,2.4,2.4c0,1.7-1.2,2.6-2.6,2.6
		C260.6,309,259.7,308,259.7,306.6L259.7,306.6z M255.7,329.7l3.5-18.2h4.5l-3.5,18.2H255.7L255.7,329.7z"/>
	<path id="XMLID_114_" fill="#F79239" d="M270.8,322.6c0,2.6,1.4,4.2,3.5,4.2c3.3,0,5.4-4.5,5.4-8c0-1.9-0.7-4.2-3.5-4.2
		C272.9,314.6,270.8,319.1,270.8,322.6L270.8,322.6z M284.2,318.6c0,6.1-4.2,11.6-10.6,11.6c-4.5,0-7.5-3.1-7.5-7.5
		c0-6.1,4.2-11.6,10.6-11.6C281.6,311.1,284.2,314.6,284.2,318.6L284.2,318.6z"/>
	<path id="XMLID_113_" fill="#F79239" d="M287,329.7l2.4-12.5c0.5-2.1,0.7-4,0.9-5.7h3.8l-0.5,3.3l0,0c1.7-2.4,4-3.8,6.6-3.8
		c2.6,0,4.7,1.7,4.7,5c0,0.7-0.2,2.1-0.2,3.1l-2.1,10.6h-4.2l1.9-10.4c0-0.7,0.2-1.4,0.2-2.1c0-1.4-0.5-2.6-2.4-2.6
		c-1.9,0-4.5,2.4-5.2,6.6l-1.7,8.5H287L287,329.7z"/>
	<path id="XMLID_110_" fill="#F79239" d="M321.7,322.4c0,0.7-0.2,1.4-0.2,2.1c0,1.4,0.9,2.4,2.4,2.4c3.8,0,6.4-5,6.4-8.5
		c0-2.1-0.9-3.8-2.8-3.8c-2.1,0-4.5,2.4-5.2,5.9L321.7,322.4L321.7,322.4z M325.5,303.3l-2.4,11.1l0,0c1.4-1.9,3.5-3.1,5.9-3.1
		c3.8,0,5.4,3.1,5.4,6.4c0,5.7-4,12.5-11.8,12.5c-3.8,0-6.1-1.7-6.1-5c0-0.9,0.2-2.1,0.2-3.1l3.8-18.9H325.5L325.5,303.3z"/>
	<path id="XMLID_109_" fill="#F79239" d="M342.7,311.6l1.4,8.7c0.2,1.9,0.5,3.3,0.7,4.5l0,0c0.5-1.2,0.9-2.4,1.7-4.2l4-9h4.5
		l-6.6,13.4c-2.1,4.5-4.2,7.5-6.6,9.9c-2.1,2.1-4.5,2.8-5.7,3.1l-0.9-3.8c0.7-0.2,2.1-0.7,3.3-1.7c1.2-0.9,2.4-2.1,3.3-3.5
		c0.2-0.2,0.2-0.5,0-0.9l-3.5-16.7h4.5V311.6z"/>
	<path id="XMLID_106_" fill="#F79239" d="M368.9,326.2c0.9,0,1.9,0.2,2.8,0.2c3.3,0,6.1-1.2,8-3.1c1.9-2.1,3.1-5.2,3.1-8.3
		c0-4.2-2.1-7.1-7.5-7.1c-0.9,0-2.1,0-2.8,0.2L368.9,326.2L368.9,326.2z M368.4,305c2.1-0.5,4.2-0.5,6.6-0.5c4,0,7.3,0.9,9.2,3.1
		c1.7,1.7,2.8,4,2.8,7.3c0,4.7-1.9,9-5.2,11.8c-2.8,2.4-6.6,3.3-11.8,3.3c-2.6,0-5.2-0.2-6.6-0.5L368.4,305L368.4,305z"/>
	<path id="XMLID_103_" fill="#F79239" d="M399.8,314.4c-2.8,0-4.5,2.4-5,4.7c4.5,0,7.3-0.5,7.3-2.8
		C402.1,315.1,401.2,314.4,399.8,314.4L399.8,314.4z M404,328.8c-1.9,0.9-4.2,1.4-6.4,1.4c-5,0-7.5-3.1-7.5-7.5
		c0-5.4,4-11.6,10.4-11.6c3.5,0,5.9,2.1,5.9,5.2c0,4.7-5,6.1-12,6.1c0,0.7,0,1.9,0.5,2.6c0.7,1.2,2.1,1.9,3.8,1.9
		c2.1,0,3.8-0.5,5-1.2L404,328.8L404,328.8z"/>
	<path id="XMLID_102_" fill="#F79239" d="M409,325.7c0.9,0.5,2.8,1.2,4.5,1.2s2.8-0.9,2.8-2.4c0-1.2-0.7-1.9-2.4-2.8
		c-2.1-1.2-3.5-2.6-3.5-4.7c0-3.5,3.1-5.9,7.3-5.9c1.9,0,3.5,0.5,4.2,0.9l-1.2,3.1c-0.7-0.5-1.9-0.7-3.3-0.7c-1.7,0-2.8,0.9-2.8,2.1
		c0,0.9,0.7,1.7,2.4,2.6c1.9,1.2,3.8,2.6,3.8,5c0,4-3.3,6.1-7.8,6.1c-2.1,0-4-0.7-5.2-1.4L409,325.7L409,325.7z"/>
	<path id="XMLID_99_" fill="#F79239" d="M428.5,306.6c0-1.7,1.2-2.6,2.6-2.6s2.4,0.9,2.4,2.4c0,1.7-1.2,2.6-2.6,2.6
		C429.5,309,428.5,308,428.5,306.6L428.5,306.6z M424.3,329.7l3.5-18.2h4.5l-3.5,18.2H424.3L424.3,329.7z"/>
	<path id="XMLID_96_" fill="#F79239" d="M448.3,315.1c-0.5-0.2-1.4-0.5-2.4-0.5c-3.8,0-6.6,4-6.6,8c0,1.9,0.7,3.8,2.8,3.8
		s4.2-2.6,5-5.9L448.3,315.1L448.3,315.1z M435.4,333c1.2,0.7,3.1,1.2,4.7,1.2c2.8,0,5-1.4,5.9-5.7l0.5-2.1l0,0
		c-1.4,2.1-3.3,3.3-5.7,3.3c-3.5,0-5.7-3.1-5.7-6.4c0-6.1,4.5-12,12-12c2.4,0,4.7,0.5,6.4,1.2l-2.8,15.1c-0.7,3.5-1.7,6.4-3.8,8
		c-1.9,1.7-4.5,2.1-6.8,2.1s-4.5-0.5-5.7-1.2L435.4,333L435.4,333z"/>
	<path id="XMLID_95_" fill="#F79239" d="M455.7,329.7l2.4-12.5c0.5-2.1,0.7-4,0.9-5.7h3.8l-0.5,3.3l0,0c1.7-2.4,4-3.8,6.6-3.8
		s4.7,1.7,4.7,5c0,0.7-0.2,2.1-0.2,3.1l-2.1,10.6H467l1.9-10.4c0-0.7,0.2-1.4,0.2-2.1c0-1.4-0.5-2.6-2.4-2.6s-4.5,2.4-5.2,6.6
		l-1.7,8.5H455.7L455.7,329.7z"/>
</g>
</svg>
